<svg enable-background="new 0 0 512 512" version="1.1" viewBox="0 0 512 512" xml:space="preserve" xmlns="http://www.w3.org/2000/svg"><path d="m0 87.388v102h215.89v-68.61h262.72v303.83h33.391v-337.22h-512zm107.94 62.359c-6.273 0-11.36-5.085-11.36-11.36s5.086-11.36 11.36-11.36c6.273 0 11.36 5.086 11.36 11.36s-5.086 11.36-11.36 11.36z"/><path d="m0 424.61h33.391v-99.781h149.1v99.781h33.391v-201.83h-215.89v201.83zm107.94-162.19c6.273 0 11.36 5.086 11.36 11.36s-5.085 11.36-11.36 11.36c-6.273 0-11.36-5.086-11.36-11.36s5.087-11.36 11.36-11.36z"/></svg>
